<svg id="Layer_1" data-name="Layer 1" xmlns="http://www.w3.org/2000/svg" viewBox="0 0 16 16"><path d="M13.69,0H2.31L0,4.19V6.73a2.55,2.55,0,0,0,.88.46l.12,0v9H9V11h2v5.19h4v-9l.13,0A2.51,2.51,0,0,0,16,6.73V4.19ZM14,15.19H12V10H8v5.19H2V7.27a2.65,2.65,0,0,0,1.75-1A2.62,2.62,0,0,0,8,6.22a2.62,2.62,0,0,0,4.25,0,2.65,2.65,0,0,0,1.75,1Zm1-9v0a2.57,2.57,0,0,1-.62.08c-.13,0-.26,0-.38,0a2.65,2.65,0,0,1-1.75-1A2.62,2.62,0,0,1,8,5.22a2.62,2.62,0,0,1-4.25,0A2.65,2.65,0,0,1,2,6.27c-.12,0-.25,0-.38,0A2.57,2.57,0,0,1,1,6.23V4.47L2.89,1H13.11L15,4.46Z"/><path d="M3,13H7V10H3Zm1-2H6v1H4Z"/></svg>