<svg id="Layer_1" data-name="Layer 1" xmlns="http://www.w3.org/2000/svg" fill="#1f1f1f" viewBox="0 0 16 16"><path d="M16,8.5V13H15a1.92,1.92,0,0,1-.27,1,2,2,0,0,1-.73.73,2,2,0,0,1-2,0,2,2,0,0,1-.73-.73A1.92,1.92,0,0,1,11,13H9a1.92,1.92,0,0,1-.27,1,2,2,0,0,1-.73.73,2,2,0,0,1-2,0A2,2,0,0,1,5.27,14,1.92,1.92,0,0,1,5,13a1.88,1.88,0,0,1,.29-1A2.18,2.18,0,0,1,6,11.27,1.89,1.89,0,0,1,7,11a2,2,0,0,1,1,.27,1.94,1.94,0,0,1,.72.73h2.54a2,2,0,0,1,.73-.73A1.92,1.92,0,0,1,13,11a2.24,2.24,0,0,1,1.12.26,1.68,1.68,0,0,1,.68.74H15V8.92L13.08,7H12v4H0V2H12V6h1.5ZM11,3H1v7H11ZM3,11a1.92,1.92,0,0,1,1,.27,2,2,0,0,1,.73.73,2,2,0,0,1,0,2,2,2,0,0,1-.73.73A1.92,1.92,0,0,1,3,15a1.92,1.92,0,0,1-1-.27A2,2,0,0,1,1.27,14,1.92,1.92,0,0,1,1,13a1.88,1.88,0,0,1,.29-1A2.18,2.18,0,0,1,2,11.27,1.89,1.89,0,0,1,3,11Zm0,3a.94.94,0,0,0,.71-.3A1,1,0,0,0,3,12a1,1,0,0,0-.7.29,1,1,0,0,0,0,1.41A.94.94,0,0,0,3,14Zm4,0a.94.94,0,0,0,.71-.3A1,1,0,0,0,6.3,12.29,1,1,0,0,0,7,14Zm6,0a.94.94,0,0,0,.71-.3,1,1,0,0,0-1.41-1.41A1,1,0,0,0,13,14Z"/></svg>