<svg id="Layer_1" data-name="Layer 1" xmlns="http://www.w3.org/2000/svg" viewBox="0 0 16 16"><path d="M13.5,7H12V6.47c-.33-.17-.66-.33-1-.47a12.09,12.09,0,0,0-1.67-.55,3.75,3.75,0,1,0-7.08-1.7,3.78,3.78,0,0,0,.42,1.7A12.09,12.09,0,0,0,1,6c-.34.14-.67.3-1,.47V12H8v4h8V7ZM11,8h1.5v2l-.75-.75L11,10ZM6,1A2.74,2.74,0,0,1,7.42,6.09a2.66,2.66,0,0,1-2.84,0A2.74,2.74,0,0,1,6,1ZM8,11H1V7.1a12.77,12.77,0,0,1,2.28-.78,3.72,3.72,0,0,0,5.44,0,11.81,11.81,0,0,1,2,.68H8Zm7,4H9V8h1v4.46l1.75-1.75,1.75,1.75V8H15Z"/></svg>