<svg id="driver" xmlns="http://www.w3.org/2000/svg" viewBox="0 0 16 16"><path d="M14.27,16A6.66,6.66,0,0,0,8,11.54" fill="none"/><path d="M5.81,10.87A7.65,7.65,0,0,0,.68,16h1a6.62,6.62,0,0,1,1.2-2.08L5.2,15.26a3.83,3.83,0,0,0-.57.74H5.7a3,3,0,0,1,4.6,0h1.07a3.75,3.75,0,0,0-.55-.71L13.11,14a6.58,6.58,0,0,1,1.16,2h1.05A7.64,7.64,0,0,0,5.81,10.87ZM10,14.62l0,0a3.88,3.88,0,0,0-3.9,0L3.61,13.19a6.61,6.61,0,0,1,8.78,0Z"/><path d="M16,9.39A11.68,11.68,0,0,0,11.75,7,4.5,4.5,0,1,0,3.5,4.51,4.43,4.43,0,0,0,4.24,7,10.57,10.57,0,0,0,0,9.43V13H1V9.88A8.78,8.78,0,0,1,5,7.83,4.52,4.52,0,0,0,8,9a4.46,4.46,0,0,0,3-1.17,9.5,9.5,0,0,1,4,2V13h1ZM8,8a3.5,3.5,0,1,1,3.5-3.5A3.5,3.5,0,0,1,8,8Z"/></svg>