<svg id="Layer_1" data-name="Layer 1" xmlns="http://www.w3.org/2000/svg" viewBox="0 0 16 16">
  <path d="M8,16a6.11,6.11,0,0,1-4.47-2A5.84,5.84,0,0,1,2,10a3.61,3.61,0,0,1,.36-1.52,5.33,5.33,0,0,0,.51-3.22L2.65,4.13l.92.66A5.81,5.81,0,0,1,5.79,8.47,15.57,15.57,0,0,0,6.1,5.91a14.86,14.86,0,0,0-.4-4.44L5.27,0,6.35.94a15,15,0,0,1,4,5.82,8.39,8.39,0,0,0,.09-3.35l-.24-1.34.93.93c.12.13,3.11,3.51,2.88,7.06A6,6,0,0,1,8,16Zm2.15-7.44L9.9,7.91A17.82,17.82,0,0,0,6.79,2.58,15,15,0,0,1,7,6.06c-.05,4.06-1.8,5-1.8,5V9.91A6.4,6.4,0,0,0,3.81,6.23a6.92,6.92,0,0,1-.7,2.7,2.9,2.9,0,0,0-.29,1.12h0A4.9,4.9,0,0,0,4.11,13.4,5.24,5.24,0,0,0,8,15.11,5.13,5.13,0,0,0,13.17,10h0a9.3,9.3,0,0,0-1.84-5.34S11.38,7.28,10.14,8.56Z"/>
</svg>
