<svg id="Layer_1" data-name="Layer 1" xmlns="http://www.w3.org/2000/svg" viewBox="0 0 16 16"><path d="M15.4,12.84a1.71,1.71,0,0,0-1.21-.51l-4.81-.4,1.5-1.9L13,11.61a1.83,1.83,0,0,0,1.26.45,1.79,1.79,0,0,0,1.2-.57,1.76,1.76,0,0,0,.44-1.26A1.69,1.69,0,0,0,15.31,9L11,5.66a.48.48,0,0,0-.64,0L7.76,8.45,7.21,6.63l4.1-3.34A1.41,1.41,0,1,0,9.62,1c-.07.05-4.15,3.09-4.14,3.1L5,4.44a2.12,2.12,0,0,0,.18-.87A2.25,2.25,0,1,0,2.71,5.8l-1.52.91A.49.49,0,0,0,1,7L.3,11.3v3.26a1.44,1.44,0,0,0,.42,1,1.43,1.43,0,0,0,1,.41h0a1.42,1.42,0,0,0,1-.42,1.41,1.41,0,0,0,.41-1c0-.08.07-2.5.08-2.93l.24-.77c.7,1.47,2,3.85,3.05,4.48a.46.46,0,0,0,.22.06c1.33,0,3.73.18,7.13.39l.3,0a1.79,1.79,0,0,0,1.22-.5,1.73,1.73,0,0,0,.52-1.23A1.77,1.77,0,0,0,15.4,12.84ZM1.63,3.57A1.25,1.25,0,1,1,2.88,4.82,1.25,1.25,0,0,1,1.63,3.57Zm13.09,11a.78.78,0,0,1-.54.23h0l-.26,0c-3.31-.21-5.67-.34-7-.38-1.06-.74-2.57-3.93-3.08-5.13A.44.44,0,0,0,3.35,9a.47.47,0,0,0-.43.33l-.62,2a.3.3,0,0,0,0,.13s-.09,3-.09,3a.51.51,0,0,1-.13.33.47.47,0,0,1-.33.14h0a.47.47,0,0,1-.47-.46s0-3.19,0-3.19l.63-4L6,4.91l4.18-3.12a.46.46,0,0,1,.65.09.52.52,0,0,1,.09.34.52.52,0,0,1-.18.31s0,0-4.38,3.56a.48.48,0,0,0-.16.5l.88,2.92a.47.47,0,0,0,.8.19l2.85-3,3.93,3.06a.75.75,0,0,1,.26.54.8.8,0,0,1-.2.57.79.79,0,0,1-1.11.06s0-.05-2.54-1.92a.48.48,0,0,0-.66.09L8.08,12a.48.48,0,0,0,.34.77l5.74.47a.8.8,0,0,1,.56.23.79.79,0,0,1,.23.56A.76.76,0,0,1,14.72,14.62Z"/></svg>