<svg id="Layer_1" data-name="Layer 1" xmlns="http://www.w3.org/2000/svg" viewBox="0 0 16 16"><rect x="1.54" y="9.13" width="1" height="4" transform="translate(-9 8.62) rotate(-66.8)"/><polygon points="13.2 0 12.8 0.9 9.29 9.21 10.2 9.61 13.8 1.3 15.6 2.1 16 1.2 13.2 0"/><polygon points="10.79 3.4 11.2 2.5 7.49 0.9 5.49 5.51 4.59 5.11 2.59 9.71 3.49 10.11 5.09 6.41 8.79 8.01 9.19 7.11 6.39 5.91 7.99 2.2 10.79 3.4"/><path d="M7.74,16a3,3,0,1,1,3-3A3,3,0,0,1,7.74,16Zm0-4.95a2,2,0,1,0,2,2A2,2,0,0,0,7.74,11.05Z"/></svg>