<svg id="Layer_1" data-name="Layer 1" xmlns="http://www.w3.org/2000/svg" viewBox="0 0 16 16">
  <path d="M2,0H12l3,3V16H2ZM14,15V3.49L11.49,1H3V15Z"/>
  <path d="M4.81,11.93a1.26,1.26,0,0,1-.27,0A.81.81,0,0,1,4,11.2c0-.39.11-1.17,1.67-2a5.82,5.82,0,0,1,1.15-.48c.33-.7.63-1.4.85-2A5.85,5.85,0,0,1,7.34,6,2.4,2.4,0,0,1,7.2,3.8a1.13,1.13,0,0,1,.9-.49h.08a1.15,1.15,0,0,1,.66.61,2.11,2.11,0,0,1-.12,1.68c0,.07-.17.48-.4,1.06A8.68,8.68,0,0,0,9.65,8.25a16.35,16.35,0,0,1,1.7,0s1.19.13,1.55.74a.76.76,0,0,1,0,.72c-.34.7-1.21.62-1.71.4A9.83,9.83,0,0,1,9.44,8.83a11.07,11.07,0,0,0-2.2.33c-.11.23-.23.45-.35.67C6.13,11.25,5.46,11.93,4.81,11.93ZM6.47,9.42,6,9.66c-1.32.73-1.39,1.3-1.38,1.46a.25.25,0,0,0,.12.22c.41.12,1-.51,1.69-1.77Zm3.81-.61a7.79,7.79,0,0,0,1.17.81s.75.3,1-.12a.23.23,0,0,0,0-.2c-.16-.26-.85-.43-1.11-.45A9.41,9.41,0,0,0,10.28,8.81ZM8.07,7.31c-.15.37-.33.77-.52,1.19a11.15,11.15,0,0,1,1.34-.2A10.27,10.27,0,0,1,8.07,7.31Zm0-3.43a.57.57,0,0,0-.38.24c-.2.3-.13.9.19,1.67,0,.08.07.16.11.23l.21-.6v0a1.58,1.58,0,0,0,.14-1.22A.63.63,0,0,0,8.05,3.88Z"/>
</svg>
