<svg id="Layer_1" data-name="Layer 1" xmlns="http://www.w3.org/2000/svg" viewBox="0 0 16 16"><path d="M1,1H3V6.38L5.5,4.93,8,6.38V1h4V6h1V0H0V16H7V15H1ZM4,1H7V4.71L5.5,3.83,4,4.71Z"/><polygon points="4.56 8.25 6.3 10 2 10 2 11 6.3 11 4.61 12.7 5.31 13.41 8.21 10.5 5.27 7.54 4.56 8.25"/><path d="M15,11.9a9.19,9.19,0,0,0-1.38-.31,2,2,0,1,0-2.4,0,9.78,9.78,0,0,0-1.22.26c-.34.11-.68.23-1,.37V16h7V12.3A8.68,8.68,0,0,0,15,11.9ZM12.42,9a1,1,0,1,1-1,1A1,1,0,0,1,12.42,9ZM15,15H10V12.91a7.45,7.45,0,0,1,2.42-.41A7.57,7.57,0,0,1,15,13Z"/></svg>