<svg id="Layer_1" data-name="Layer 1" xmlns="http://www.w3.org/2000/svg" viewBox="0 0 16 16">
  <polygon points="16 16 16 15 15 15 15 9 16 9 16 8 14 8 14 16 16 16"/>
  <path d="M4,9V8H3A2,2,0,0,0,1,6V3A2,2,0,0,0,3,1h8a2,2,0,0,0,2,2V6h1V0H0V9Zm9-8V2a.94.94,0,0,1-1-.88V1ZM1,1H2a.94.94,0,0,1-.88,1H1ZM1,7a.94.94,0,0,1,1,.88V8H1Z"/>
  <path d="M11.05,8.39a30.31,30.31,0,0,0-3.77-1A2,2,0,0,0,5.05,8.92c-.28,1.49.44,2.2,1.14,2.33a4.81,4.81,0,0,0,1,.07,2.68,2.68,0,0,1,.8.06,14.23,14.23,0,0,1,1.63,1.47l.71-.71a14.49,14.49,0,0,0-1.87-1.62,2.88,2.88,0,0,0-1.27-.17,5.08,5.08,0,0,1-.78,0c-.36-.08-.51-.54-.38-1.2s.72-.71,1.22-.69a34.19,34.19,0,0,1,3.48.91,10.56,10.56,0,0,1,2.46,1.94V9.89A8.42,8.42,0,0,0,11.05,8.39Z"/>
  <path d="M6.19,13.43a5.81,5.81,0,0,1-3.75-3.2H1.35A6.85,6.85,0,0,0,6,14.41,15.22,15.22,0,0,0,9,14.68a33.85,33.85,0,0,0,4.19-.32v-1A24,24,0,0,1,6.19,13.43Z"/>
  <path d="M7,6.78A2.28,2.28,0,1,1,9.28,4.5,2.28,2.28,0,0,1,7,6.78ZM7,3.22A1.28,1.28,0,1,0,8.28,4.5,1.28,1.28,0,0,0,7,3.22Z"/>
</svg>
