<svg id="Layer_1" data-name="Layer 1" xmlns="http://www.w3.org/2000/svg" viewBox="0 0 16 16"><path d="M6.42,12.94A3.19,3.19,0,0,0,9.51,16a3.19,3.19,0,0,0,3.08-3.09c0-1.54-3.08-5.14-3.08-5.14S6.42,11.4,6.42,12.94Zm5.17,0A2.2,2.2,0,0,1,9.51,15a2.2,2.2,0,0,1-2.09-2.09c0-.57,1-2.13,2.09-3.56C10.61,10.81,11.59,12.37,11.59,12.94Z"/><path d="M13.84,3.07s-2.16,2.52-2.16,3.6a2.24,2.24,0,0,0,2.16,2.16A2.24,2.24,0,0,0,16,6.67C16,5.59,13.84,3.07,13.84,3.07Zm0,4.76a1.24,1.24,0,0,1-1.16-1.15,6.69,6.69,0,0,1,1.16-2,7.06,7.06,0,0,1,1.16,2A1.24,1.24,0,0,1,13.84,7.83Z"/><path d="M3.73,0S0,4.39,0,6.25A3.87,3.87,0,0,0,3.73,10,3.87,3.87,0,0,0,7.47,6.25C7.47,4.39,3.73,0,3.73,0Zm0,9A2.89,2.89,0,0,1,1,6.25c0-.78,1.31-2.84,2.73-4.64,1.43,1.8,2.74,3.86,2.74,4.64A2.89,2.89,0,0,1,3.73,9Z"/></svg>