<svg id="Layer_1" data-name="Layer 1" xmlns="http://www.w3.org/2000/svg" viewBox="0 0 16 16">
  <path d="M6.32,3.46A4.84,4.84,0,0,1,8,2.35,5.43,5.43,0,0,1,10,2a4.48,4.48,0,0,1,2.86.93l-.49.64a3.32,3.32,0,0,0-1-.57A4,4,0,0,0,10,2.76a4.58,4.58,0,0,0-1.72.33A3.77,3.77,0,0,0,6.89,4a3.71,3.71,0,0,0-.84,1.43l-.74-.32A4.45,4.45,0,0,1,6.32,3.46Z"/>
  <path d="M16,9V6.42l-.46-1V5a4.55,4.55,0,0,0-.71-2.53,4.94,4.94,0,0,0-2-1.9A5.92,5.92,0,0,0,10,0H4V3A5.12,5.12,0,0,0,3,5.66l-3,1V9H3.48c0,.11,0,.22,0,.35A6.15,6.15,0,0,0,2.33,11.1c-.27.76-.42,1.33.07,1.72.1.08.27.22,1.74.31l.16,0a6.17,6.17,0,0,0,5,2.83,6.27,6.27,0,0,0,6-6.5V9ZM4.81.76H7a5,5,0,0,0-1.18.6,4,4,0,0,0-1,.89ZM1,7.38l3-1V5.73A4.07,4.07,0,0,1,4.86,3.4,5.25,5.25,0,0,1,7,1.6,6.88,6.88,0,0,1,10,1a4.68,4.68,0,0,1,2.34.56,4.05,4.05,0,0,1,1.59,1.59,3.71,3.71,0,0,1,.57,2v.5l.5,1V8H1Zm13.33,2.1a5.28,5.28,0,0,1-5,5.5A5.17,5.17,0,0,1,5,12.41a.56.56,0,0,0-.39-.24l-.41,0-.79-.07a.33.33,0,0,1-.17-.2.71.71,0,0,1,0-.43h0a5.36,5.36,0,0,1,1-1.56.5.5,0,0,0,.14-.35,4.43,4.43,0,0,1,0-.55l9.83,0Z"/>
</svg>
