<?xml version="1.0" encoding="UTF-8"?>
<svg width="153px" height="25px" viewBox="0 0 153 25" version="1.1" xmlns="http://www.w3.org/2000/svg" xmlns:xlink="http://www.w3.org/1999/xlink">
    <title>WhitePolicyCenterAppLogo</title>
    <defs>
        <polygon id="path-1" points="0 34 152.65 34 152.65 0.985 0 0.985"></polygon>
        <polygon id="path-3" points="0.851 0.836 0.851 5.498 0.851 19.487 0.851 24.149 5.612 24.149 15.134 24.149 15.134 19.487 5.612 19.487 5.612 5.498 24.657 5.498 24.657 0.836"></polygon>
        <polygon id="path-5" points="0.373 0.161 0.373 4.823 9.896 4.823 9.896 14.148 14.656 14.148 14.656 4.823 14.656 0.161"></polygon>
    </defs>
    <g id="WhitePolicyCenterAppLogo" stroke="none" stroke-width="1" fill="none" fill-rule="evenodd">
        <g id="Page-1" transform="translate(-4.000000, -5.000000)">
            <g id="Group-18" transform="translate(0.000000, 0.014800)">
                <path d="M40.9192,16.8301 L43.0032,16.8301 C45.3222,16.8301 46.1122,15.8231 46.1122,14.6011 C46.1122,13.3791 45.3222,12.3911 43.0032,12.3911 L40.9192,12.3911 L40.9192,16.8301 Z M39.6252,11.2041 L43.3272,11.2041 C45.9152,11.2041 47.5152,12.3181 47.5152,14.6011 C47.5152,16.8841 45.9152,18.0161 43.3272,18.0161 L40.9192,18.0161 L40.9192,23.9291 L39.6252,23.9291 L39.6252,11.2041 Z" id="Fill-1" fill="white"></path>
                <path d="M52.5662,16.3799 C50.6252,16.3799 49.4022,17.8359 49.4032,19.7229 C49.4032,21.6099 50.6252,23.0659 52.5662,23.0659 C54.5252,23.0659 55.7472,21.6099 55.7472,19.7229 C55.7472,17.8359 54.5252,16.3799 52.5662,16.3799 M52.5662,24.1439 C49.9612,24.1439 48.1092,22.2569 48.1092,19.7229 C48.1092,17.1889 49.9602,15.3019 52.5662,15.3019 C55.1902,15.3019 57.0412,17.1889 57.0412,19.7229 C57.0412,22.2569 55.1902,24.1439 52.5662,24.1439" id="Fill-3" fill="white"></path>
                <polygon id="Fill-5" fill="white" points="61.0149 23.9282 59.8289 23.9282 59.8289 10.3412 61.0149 10.3412"></polygon>
                <mask id="mask-2" fill="white">
                    <use xlink:href="#path-1"></use>
                </mask>
                <g id="Clip-8"></g>
                <path d="M64.502,23.928 L65.688,23.928 L65.688,15.517 L64.502,15.517 L64.502,23.928 Z M65.095,13.145 C64.664,13.145 64.232,12.786 64.232,12.283 C64.232,11.779 64.664,11.419 65.095,11.419 C65.527,11.419 65.958,11.779 65.958,12.283 C65.958,12.786 65.527,13.145 65.095,13.145 Z" id="Fill-7" fill="white" mask="url(#mask-2)"></path>
                <path d="M75.0344,17.4942 C74.6394,16.8832 73.8664,16.3802 72.9314,16.3802 C70.9724,16.3442 69.7684,17.8002 69.7684,19.7232 C69.7684,21.6462 70.9724,23.1012 72.9324,23.0652 C73.8664,23.0652 74.6394,22.5622 75.0344,21.9512 L76.0054,22.6882 C75.1784,23.6592 74.0644,24.1252 72.9324,24.1432 C70.1824,24.1802 68.4744,22.2572 68.4744,19.7232 C68.4744,17.1882 70.1814,15.2652 72.9314,15.3022 C74.0644,15.3192 75.1784,15.7862 76.0054,16.7572 L75.0344,17.4942 Z" id="Fill-9" fill="white" mask="url(#mask-2)"></path>
                <path d="M81.0569,22.4722 L83.6269,15.5172 L85.0649,15.5172 L80.8589,26.1202 C80.3559,27.4142 79.6729,28.2412 78.2169,28.2412 C77.8579,28.2412 77.4809,28.2232 77.1209,28.1152 L77.2469,26.9652 C77.5159,27.1092 77.8219,27.1632 78.1459,27.1632 C78.9729,27.1632 79.4039,26.6062 79.7629,25.6532 L80.3739,24.0362 L76.9229,15.5172 L78.4149,15.5172 L81.0569,22.4722 Z" id="Fill-10" fill="white" mask="url(#mask-2)"></path>
                <path d="M97.8621,21.9151 C97.0171,23.2271 95.2561,24.2511 93.1541,24.2511 C89.3611,24.2511 86.5221,21.4301 86.5221,17.5661 C86.5211,13.7021 89.3611,10.8801 93.1531,10.8801 C94.7351,10.8801 96.4421,11.4731 97.5561,12.8931 L96.4241,13.7371 C95.9211,12.9111 94.5011,12.0661 93.1531,12.0661 C89.8821,12.0661 87.9231,14.6361 87.9231,17.5661 C87.9231,20.4951 89.8821,23.0651 93.1541,23.0651 C94.4831,23.0651 95.8491,22.6341 96.8011,21.1601 L97.8621,21.9151 Z" id="Fill-11" fill="white" mask="url(#mask-2)"></path>
                <path d="M106.5085,19.0752 C106.5085,17.4752 105.4845,16.3792 103.7765,16.3792 C102.2315,16.3792 100.8295,17.6912 100.8295,19.0752 L106.5085,19.0752 Z M100.7935,20.0452 C100.9375,21.7352 102.2135,23.0652 103.8845,23.0652 C105.1425,23.0652 106.1125,22.3642 106.5805,21.6092 L107.4965,22.3642 C106.5085,23.6222 105.2685,24.1432 103.8845,24.1432 C101.3865,24.1432 99.5355,22.2562 99.5355,19.7222 C99.5355,17.1882 101.3865,15.3012 103.7765,15.3012 C106.3285,15.3192 107.8025,17.2062 107.8025,19.5062 L107.8025,20.0452 L100.7935,20.0452 Z" id="Fill-12" fill="white" mask="url(#mask-2)"></path>
                <path d="M111.4529,15.5166 C111.5069,15.9656 111.5069,16.4146 111.5069,16.8646 L111.5429,16.8646 C112.0639,15.9486 113.2499,15.3006 114.3639,15.3006 C116.5029,15.3006 117.5269,16.5046 117.5269,18.5896 L117.5269,23.9276 L116.3419,23.9276 L116.3419,19.2726 C116.3419,17.4036 115.8199,16.3786 114.0579,16.3786 C113.8069,16.3786 111.5069,16.5406 111.5069,19.6146 L111.5069,23.9276 L110.3209,23.9276 L110.3209,17.3676 C110.3209,16.9186 110.2669,16.1276 110.2309,15.5166 L111.4529,15.5166 Z" id="Fill-13" fill="white" mask="url(#mask-2)"></path>
                <path d="M125.0237,16.5943 L122.5977,16.5943 L122.5977,21.5553 C122.5977,22.8133 123.0827,23.0653 123.8197,23.0653 C124.2327,23.0643 124.6827,22.9383 125.0417,22.7413 L125.0957,23.8373 C124.6647,24.0353 124.0897,24.1433 123.4967,24.1433 C122.5977,24.1433 121.4117,23.7483 121.4117,21.8963 L121.4117,16.5943 L119.6317,16.5943 L119.6317,15.5163 L121.4117,15.5163 L121.4117,13.1443 L122.5977,13.1443 L122.5977,15.5163 L125.0237,15.5163 L125.0237,16.5943 Z" id="Fill-14" fill="white" mask="url(#mask-2)"></path>
                <path d="M133.5437,19.0747 C133.5437,17.4747 132.5187,16.3787 130.8117,16.3787 C129.2667,16.3787 127.8637,17.6907 127.8637,19.0747 L133.5437,19.0747 Z M127.8287,20.0447 C127.9717,21.7347 129.2487,23.0647 130.9197,23.0647 C132.1777,23.0647 133.1477,22.3637 133.6147,21.6087 L134.5317,22.3637 C133.5437,23.6217 132.3037,24.1427 130.9197,24.1427 C128.4217,24.1427 126.5697,22.2557 126.5697,19.7217 C126.5697,17.1877 128.4217,15.3007 130.8117,15.3007 C133.3637,15.3187 134.8367,17.2057 134.8367,19.5057 L134.8367,20.0447 L127.8287,20.0447 Z" id="Fill-15" fill="white" mask="url(#mask-2)"></path>
                <path d="M137.4807,18.1402 C137.4807,17.3852 137.4447,16.7382 137.4087,15.5162 L138.5767,15.5162 L138.5767,17.0792 L138.6127,17.0792 C138.9547,16.1812 139.8347,15.3002 141.3087,15.3002 C141.6507,15.3002 141.9377,15.3362 142.1897,15.4092 L141.9557,16.5772 C141.8117,16.5222 141.5967,16.4872 141.2727,16.4872 C139.4757,16.4872 138.6667,18.0502 138.6667,19.1822 L138.6677,23.9272 L137.4807,23.9272 L137.4807,18.1402 Z" id="Fill-16" fill="white" mask="url(#mask-2)"></path>
                <path d="M152.6506,15.8418 L151.9866,15.8418 L151.9866,12.0158 L151.9646,12.0158 L150.4276,15.8418 L149.9966,15.8418 L148.4596,12.0158 L148.4376,12.0158 L148.4376,15.8418 L147.7736,15.8418 L147.7736,11.2858 L148.8016,11.2858 L150.2286,14.7798 L151.6546,11.2858 L152.6506,11.2858 L152.6506,15.8418 Z M146.8226,11.8828 L145.3516,11.8828 L145.3516,15.8418 L144.6886,15.8418 L144.6876,11.8828 L143.1846,11.8828 L143.1846,11.2858 L146.8226,11.2858 L146.8226,11.8828 Z" id="Fill-17" fill="white" mask="url(#mask-2)"></path>
            </g>
            <g id="Group-21" transform="translate(4.000000, 5.014800)">
                <mask id="mask-4" fill="white">
                    <use xlink:href="#path-3"></use>
                </mask>
                <g id="Clip-20"></g>
                <polygon id="Fill-19" fill="white" mask="url(#mask-4)" points="-4 29 29.508 29 29.508 -4.015 -4 -4.015"></polygon>
            </g>
            <g id="Group-24" transform="translate(14.000000, 15.014800)">
                <mask id="mask-6" fill="white">
                    <use xlink:href="#path-5"></use>
                </mask>
                <g id="Clip-23"></g>
                <polygon id="Fill-22" fill="white" mask="url(#mask-6)" points="-4.478 19 19.507 19 19.507 -4.689 -4.478 -4.689"></polygon>
            </g>
        </g>
    </g>
</svg>