<svg id="Layer_1" data-name="Layer 1" xmlns="http://www.w3.org/2000/svg" viewBox="0 0 16 16">
  <path d="M8,15.5a7.33,7.33,0,0,1-3.76-1,7.45,7.45,0,0,1-2.73-2.73A7.33,7.33,0,0,1,.5,8a7.33,7.33,0,0,1,1-3.76A7.45,7.45,0,0,1,4.24,1.51,7.33,7.33,0,0,1,8,.5a7.33,7.33,0,0,1,3.76,1,7.45,7.45,0,0,1,2.73,2.73A7.33,7.33,0,0,1,15.5,8a7.33,7.33,0,0,1-1,3.76,7.45,7.45,0,0,1-2.73,2.73A7.33,7.33,0,0,1,8,15.5Zm0-1a6.28,6.28,0,0,0,3.26-.88,6.51,6.51,0,0,0,2.36-2.36A6.28,6.28,0,0,0,14.5,8a6.28,6.28,0,0,0-.88-3.26,6.51,6.51,0,0,0-2.36-2.36A6.28,6.28,0,0,0,8,1.5a6.28,6.28,0,0,0-3.26.88A6.51,6.51,0,0,0,2.38,4.74,6.28,6.28,0,0,0,1.5,8a6.28,6.28,0,0,0,.88,3.26,6.51,6.51,0,0,0,2.36,2.36A6.28,6.28,0,0,0,8,14.5Z" style="fill: #3178a6"/>
  <rect x="4" y="7.5" width="8" height="1" style="fill: #3178a6"/>
</svg>
