<svg id="Layer_1" data-name="Layer 1" xmlns="http://www.w3.org/2000/svg" viewBox="0 0 16 16">
  <g>
    <path d="M3.5,4A1.51,1.51,0,0,0,2,5.16L14,9.8V7.65L4.58,4Z" style="fill: none"/>
    <path d="M14,5.5A1.5,1.5,0,0,0,12.5,4H7.34L14,6.58Z" style="fill: none"/>
    <path d="M2,8.36,11.38,12H12.5A1.5,1.5,0,0,0,14,10.85L2,6.22Z" style="fill: none"/>
    <path d="M2,10.5A1.5,1.5,0,0,0,3.5,12H8.61L2,9.43Z" style="fill: none"/>
    <g>
      <path d="M3.5,4A1.51,1.51,0,0,0,2,5.16,1.86,1.86,0,0,0,2,5.5v5A1.5,1.5,0,0,0,3.5,12h9A1.5,1.5,0,0,0,14,10.85,1.34,1.34,0,0,0,14,10.5v-5A1.5,1.5,0,0,0,12.5,4h-9Z" style="fill: none"/>
      <path d="M12.5,3h-9a2.45,2.45,0,0,0-1,.2A2.5,2.5,0,0,0,1.11,4.8,2.69,2.69,0,0,0,1,5.5v5A2.5,2.5,0,0,0,3.5,13h9a2.57,2.57,0,0,0,1-.19,2.52,2.52,0,0,0,1.42-1.59A2.47,2.47,0,0,0,15,10.5v-5A2.5,2.5,0,0,0,12.5,3Zm-9,9A1.5,1.5,0,0,1,2,10.5V9.43L8.61,12Zm9,0H11.38L2,8.36V6.22l12,4.63A1.5,1.5,0,0,1,12.5,12ZM14,9.8,2,5.16A1.51,1.51,0,0,1,3.5,4H4.58L14,7.65Zm0-3.22L7.34,4H12.5A1.5,1.5,0,0,1,14,5.5Z" style="fill: #3178a6"/>
    </g>
  </g>
</svg>
