<svg id="Layer_1" data-name="Layer 1" xmlns="http://www.w3.org/2000/svg" width="147.8" height="23.31" viewBox="0 0 147.8 23.31"><title>PC_Logotype_App</title><path d="M38.48,5.37H34.77V18.09h1.3V12.18h2.41c2.58,0,4.18-1.13,4.18-3.42S41.06,5.37,38.48,5.37ZM38.15,11H36.07V6.55h2.08c2.32,0,3.11,1,3.11,2.21S40.47,11,38.15,11Z" fill="#006d9a"/><path d="M47.72,9.47a4.29,4.29,0,0,0-4.46,4.42,4.47,4.47,0,0,0,8.93,0A4.29,4.29,0,0,0,47.72,9.47Zm0,7.76a3.12,3.12,0,0,1-3.17-3.34,3.18,3.18,0,1,1,6.35,0A3.13,3.13,0,0,1,47.72,17.23Z" fill="#006d9a"/><rect x="54.98" y="4.51" width="1.19" height="13.59" fill="#006d9a"/><path d="M60.24,7.31a.87.87,0,1,1,.87-.86A.87.87,0,0,1,60.24,7.31Z" fill="#006d9a"/><rect x="59.65" y="9.68" width="1.19" height="8.41" fill="#006d9a"/><path d="M70.18,11.66a2.51,2.51,0,0,0-2.1-1.12,3.07,3.07,0,0,0-3.16,3.35,3.06,3.06,0,0,0,3.16,3.34,2.5,2.5,0,0,0,2.1-1.11l1,.73a4.07,4.07,0,0,1-3.07,1.46,4.2,4.2,0,0,1-4.46-4.42,4.19,4.19,0,0,1,4.46-4.42,4,4,0,0,1,3.07,1.45Z" fill="#006d9a"/><path d="M76.21,16.64l2.57-7h1.43L76,20.28c-.5,1.3-1.19,2.13-2.64,2.13a3.76,3.76,0,0,1-1.1-.13l.13-1.15a1.91,1.91,0,0,0,.89.2c.83,0,1.26-.56,1.62-1.51l.61-1.62L72.07,9.68h1.49Z" fill="#006d9a"/><path d="M93,16.08a5.6,5.6,0,0,1-4.71,2.34,6.48,6.48,0,0,1-6.63-6.69A6.48,6.48,0,0,1,88.3,5a5.56,5.56,0,0,1,4.41,2l-1.14.84A4.18,4.18,0,0,0,88.3,6.23a5.2,5.2,0,0,0-5.23,5.5,5.2,5.2,0,0,0,5.23,5.5A4.07,4.07,0,0,0,92,15.32Z" fill="#006d9a"/><path d="M103,13.67a3.94,3.94,0,0,0-4-4.21,4.26,4.26,0,0,0-4.25,4.43A4.28,4.28,0,0,0,99,18.31a4.39,4.39,0,0,0,3.62-1.78l-.92-.76a3.14,3.14,0,0,1-5.79-1.56h7Zm-7-.43a3,3,0,0,1,3-2.7,2.54,2.54,0,0,1,2.73,2.7Z" fill="#006d9a"/><path d="M106.6,9.68a10.17,10.17,0,0,1,.06,1.35h0a3.39,3.39,0,0,1,2.82-1.57c2.14,0,3.17,1.21,3.17,3.29v5.34h-1.19V13.44c0-1.87-.52-2.9-2.28-2.9-.25,0-2.55.16-2.55,3.24v4.31h-1.19V11.53c0-.45,0-1.24-.09-1.85Z" fill="#006d9a"/><path d="M120.17,10.76h-2.42v5c0,1.26.48,1.51,1.22,1.51a2.62,2.62,0,0,0,1.22-.33l0,1.1a3.89,3.89,0,0,1-1.59.31,2,2,0,0,1-2.09-2.25v-5.3h-1.78V9.68h1.78V7.31h1.19V9.68h2.42Z" fill="#006d9a"/><path d="M130,13.67a4,4,0,0,0-4-4.21,4.25,4.25,0,0,0-4.24,4.43,4.27,4.27,0,0,0,4.35,4.42,4.38,4.38,0,0,0,3.61-1.78l-.92-.76A3.13,3.13,0,0,1,123,14.21h7Zm-7-.43a3,3,0,0,1,2.95-2.7,2.54,2.54,0,0,1,2.73,2.7Z" fill="#006d9a"/><path d="M132.63,12.3c0-.75,0-1.4-.07-2.62h1.17v1.56h0a2.76,2.76,0,0,1,2.7-1.78,3.25,3.25,0,0,1,.88.11l-.24,1.17a2,2,0,0,0-.68-.09,2.62,2.62,0,0,0-2.6,2.7v4.74h-1.19Z" fill="#006d9a"/><polygon points="141.97 6.05 140.5 6.05 140.5 10.01 139.84 10.01 139.84 6.05 138.33 6.05 138.33 5.45 141.97 5.45 141.97 6.05" fill="#006d9a"/><polygon points="147.8 10.01 147.14 10.01 147.14 6.18 147.11 6.18 145.58 10.01 145.15 10.01 143.61 6.18 143.59 6.18 143.59 10.01 142.92 10.01 142.92 5.45 143.95 5.45 145.38 8.94 146.8 5.45 147.8 5.45 147.8 10.01" fill="#006d9a"/><polygon points="0 0 0 4.66 0 18.65 0 23.31 4.76 23.31 14.28 23.31 14.28 18.65 4.76 18.65 4.76 4.66 23.8 4.66 23.8 0 0 0" fill="#006d9a" fill-rule="evenodd"/><polygon points="9.52 9.32 9.52 13.99 19.05 13.99 19.05 23.31 23.8 23.31 23.8 13.99 23.8 9.32 9.52 9.32" fill="#006d9a" fill-rule="evenodd"/></svg>