<?xml version="1.0" encoding="UTF-8"?>
<svg width="243px" height="43px" viewBox="0 0 243 43" version="1.1" xmlns="http://www.w3.org/2000/svg" xmlns:xlink="http://www.w3.org/1999/xlink">
    <title>PolicyCenterLoginLogo</title>
    <defs>
        <polygon id="path-1" points="0 36.8998 232.994 36.8998 232.994 -0.0002 0 -0.0002"></polygon>
    </defs>
    <g id="PolicyCenterLoginLogo" stroke="none" stroke-width="1" fill="none" fill-rule="evenodd">
        <g id="Page-1" transform="translate(5.000000, 3.000000)">
            <path d="M2.6682,13.3756 L6.9652,13.3756 C11.7442,13.3756 13.3742,11.3006 13.3742,8.7806 C13.3742,6.2626 11.7442,4.2246 6.9652,4.2246 L2.6682,4.2246 L2.6682,13.3756 Z M0.0002,1.7786 L7.6312,1.7786 C12.9662,1.7786 16.2652,4.0756 16.2652,8.7806 C16.2652,13.4866 12.9672,15.8206 7.6322,15.8206 L2.6682,15.8206 L2.6682,28.0096 L0.0002,28.0096 L0.0002,1.7786 Z" id="Fill-1" fill="#006D9A"></path>
            <path d="M26.678,12.4484 C22.676,12.4484 20.157,15.4494 20.157,19.3404 C20.157,23.2294 22.676,26.2304 26.678,26.2304 C30.716,26.2304 33.235,23.2294 33.235,19.3404 C33.235,15.4494 30.716,12.4484 26.678,12.4484 M26.678,28.4534 C21.306,28.4534 17.49,24.5644 17.49,19.3404 C17.49,14.1154 21.306,10.2254 26.678,10.2254 C32.086,10.2254 35.903,14.1154 35.903,19.3404 C35.903,24.5634 32.086,28.4534 26.678,28.4534" id="Fill-3" fill="#006D9A"></path>
            <polygon id="Fill-5" fill="#006D9A" points="44.094 28.0089 41.65 28.0089 41.649 -0.0001 44.094 -0.0001"></polygon>
            <mask id="mask-2" fill="white">
                <use xlink:href="#path-1"></use>
            </mask>
            <g id="Clip-8"></g>
            <path d="M51.284,28.0088 L53.728,28.0088 L53.728,10.6698 L51.284,10.6698 L51.284,28.0088 Z M52.506,5.7788 C51.616,5.7788 50.727,5.0388 50.727,4.0018 C50.727,2.9638 51.616,2.2218 52.506,2.2218 C53.395,2.2218 54.283,2.9638 54.283,4.0018 C54.283,5.0388 53.395,5.7788 52.506,5.7788 Z" id="Fill-7" fill="#006D9A" mask="url(#mask-2)"></path>
            <path d="M72.9944,14.7448 C72.1804,13.4858 70.5864,12.4478 68.6604,12.4478 C64.6214,12.3738 62.1394,15.3748 62.1394,19.3398 C62.1394,23.3038 64.6214,26.3048 68.6604,26.2298 C70.5864,26.2298 72.1804,25.1928 72.9944,23.9328 L74.9954,25.4518 C73.2914,27.4528 70.9944,28.4158 68.6604,28.4528 C62.9914,28.5268 59.4724,24.5628 59.4724,19.3398 C59.4724,14.1148 62.9914,10.1508 68.6604,10.2248 C70.9944,10.2628 73.2914,11.2248 74.9954,13.2258 L72.9944,14.7448 Z" id="Fill-9" fill="#006D9A" mask="url(#mask-2)"></path>
            <path d="M85.4094,25.007 L90.7074,10.669 L93.6714,10.669 L85.0014,32.528 C83.9644,35.195 82.5564,36.9 79.5554,36.9 C78.8154,36.9 78.0364,36.863 77.2954,36.64 L77.5554,34.269 C78.1114,34.566 78.7414,34.677 79.4084,34.677 C81.1124,34.677 82.0004,33.528 82.7414,31.565 L84.0014,28.231 L76.8884,10.67 L79.9634,10.67 L85.4094,25.007 Z" id="Fill-10" fill="#006D9A" mask="url(#mask-2)"></path>
            <path d="M120.052,23.858 C118.311,26.562 114.68,28.674 110.345,28.675 C102.528,28.675 96.674,22.858 96.674,14.893 C96.674,6.928 102.527,1.11 110.344,1.11 C113.604,1.11 117.125,2.333 119.422,5.259 L117.088,7.001 C116.05,5.296 113.123,3.555 110.345,3.556 C103.602,3.556 99.564,8.854 99.564,14.893 C99.564,20.932 103.602,26.23 110.345,26.23 C113.086,26.229 115.903,25.34 117.865,22.302 L120.052,23.858 Z" id="Fill-11" fill="#006D9A" mask="url(#mask-2)"></path>
            <path d="M137.8762,18.0045 C137.8762,14.7065 135.7642,12.4465 132.2442,12.4465 C129.0592,12.4465 126.1682,15.1515 126.1682,18.0045 L137.8762,18.0045 Z M126.0952,20.0045 C126.3912,23.4875 129.0222,26.2295 132.4672,26.2295 C135.0612,26.2295 137.0612,24.7835 138.0232,23.2285 L139.9132,24.7835 C137.8762,27.3775 135.3192,28.4515 132.4672,28.4515 C127.3172,28.4515 123.5012,24.5625 123.5012,19.3385 C123.5012,14.1135 127.3172,10.2245 132.2442,10.2245 C137.5052,10.2615 140.5432,14.1505 140.5432,18.8935 L140.5432,20.0045 L126.0952,20.0045 Z" id="Fill-12" fill="#006D9A" mask="url(#mask-2)"></path>
            <path d="M148.0686,10.6681 C148.1786,11.5951 148.1786,12.5211 148.1786,13.4471 L148.2536,13.4471 C149.3276,11.5581 151.7726,10.2241 154.0696,10.2241 C158.4786,10.2241 160.5896,12.7061 160.5896,17.0041 L160.5896,28.0071 L158.1456,28.0071 L158.1456,18.4111 C158.1456,14.5591 157.0706,12.4461 153.4396,12.4461 C152.9216,12.4461 148.1786,12.7801 148.1786,19.1151 L148.1786,28.0071 L145.7346,28.0071 L145.7346,14.4841 C145.7346,13.5581 145.6236,11.9281 145.5486,10.6681 L148.0686,10.6681 Z" id="Fill-13" fill="#006D9A" mask="url(#mask-2)"></path>
            <path d="M176.0432,12.8903 L171.0422,12.8903 L171.0422,23.1163 C171.0422,25.7103 172.0422,26.2283 173.5622,26.2283 C174.4132,26.2283 175.3402,25.9683 176.0802,25.5613 L176.1912,27.8213 C175.3032,28.2293 174.1172,28.4513 172.8952,28.4513 C171.0422,28.4513 168.5972,27.6373 168.5972,23.8203 L168.5972,12.8903 L164.9292,12.8903 L164.9292,10.6683 L168.5972,10.6683 L168.5972,5.7773 L171.0422,5.7773 L171.0422,10.6683 L176.0432,10.6673 L176.0432,12.8903 Z" id="Fill-14" fill="#006D9A" mask="url(#mask-2)"></path>
            <path d="M193.6067,18.0035 C193.6067,14.7055 191.4947,12.4455 187.9747,12.4455 C184.7897,12.4455 181.8987,15.1505 181.8987,18.0035 L193.6067,18.0035 Z M181.8257,20.0035 C182.1217,23.4865 184.7527,26.2285 188.1977,26.2285 C190.7917,26.2285 192.7917,24.7825 193.7537,23.2275 L195.6437,24.7825 C193.6067,27.3765 191.0497,28.4505 188.1977,28.4505 C183.0477,28.4505 179.2317,24.5615 179.2317,19.3375 C179.2317,14.1125 183.0477,10.2235 187.9747,10.2235 C193.2357,10.2605 196.2737,14.1495 196.2737,18.8925 L196.2737,20.0035 L181.8257,20.0035 Z" id="Fill-15" fill="#006D9A" mask="url(#mask-2)"></path>
            <path d="M201.7229,16.0768 C201.7229,14.5208 201.6489,13.1868 201.5749,10.6678 L203.9829,10.6668 L203.9829,13.8908 L204.0569,13.8908 C204.7609,12.0378 206.5769,10.2228 209.6149,10.2228 C210.3189,10.2228 210.9109,10.2968 211.4299,10.4458 L210.9479,12.8538 C210.6519,12.7428 210.2069,12.6678 209.5399,12.6678 C205.8349,12.6678 204.1679,15.8908 204.1679,18.2258 L204.1679,28.0058 L201.7229,28.0068 L201.7229,16.0768 Z" id="Fill-16" fill="#006D9A" mask="url(#mask-2)"></path>
            <path d="M232.9944,11.3385 L231.6264,11.3385 L231.6264,3.4515 L231.5814,3.4515 L228.4124,11.3385 L227.5234,11.3385 L224.3544,3.4515 L224.3084,3.4515 L224.3084,11.3385 L222.9404,11.3385 L222.9404,1.9475 L225.0604,1.9475 L228.0024,9.1505 L230.9424,1.9475 L232.9944,1.9465 L232.9944,11.3385 Z M220.9804,3.1775 L217.9484,3.1775 L217.9484,11.3385 L216.5804,11.3385 L216.5804,3.1775 L213.4804,3.1775 L213.4804,1.9475 L220.9804,1.9475 L220.9804,3.1775 Z" id="Fill-17" fill="#006D9A" mask="url(#mask-2)"></path>
        </g>
    </g>
</svg>